{
  "accessors": [
    {
      "bufferView": 2,
      "componentType": 5126,
      "count": 4108,
      "max": [
        1919.865966796875,
        13493.6826171875,
        1919.5599365234375
      ],
      "min": [
        -1918.91650390625,
        124.83897399902344,
        -1918.0802001953125
      ],
      "type": "VEC3"
    },
    {
      "bufferView": 2,
      "byteOffset": 49296,
      "componentType": 5126,
      "count": 4108,
      "max": [
        1,
        1,
        1
      ],
      "min": [
        -1,
        -1,
        -1
      ],
      "type": "VEC3"
    },
    {
      "bufferView": 3,
      "componentType": 5126,
      "count": 4108,
      "max": [
        1,
        1,
        1,
        1
      ],
      "min": [
        -1,
        -1,
        -1,
        -1
      ],
      "type": "VEC4"
    },
    {
      "bufferView": 1,
      "componentType": 5126,
      "count": 4108,
      "max": [
        0.99955070018768311,
        0.99688011407852173
      ],
      "min": [
        -0.0037602842785418034,
        -0.020192835479974747
      ],
      "type": "VEC2"
    },
    {
      "bufferView": 1,
      "byteOffset": 32864,
      "componentType": 5126,
      "count": 4108,
      "max": [
        0.9999309778213501,
        0.99688011407852173
      ],
      "min": [
        -0.0037602842785418034,
        -0.020192835479974747
      ],
      "type": "VEC2"
    },
    {
      "bufferView": 1,
      "byteOffset": 65728,
      "componentType": 5126,
      "count": 4108,
      "max": [
        0.9999309778213501,
        0.99688011407852173
      ],
      "min": [
        -0.0037602842785418034,
        -0.020192835479974747
      ],
      "type": "VEC2"
    },
    {
      "bufferView": 1,
      "byteOffset": 98592,
      "componentType": 5126,
      "count": 4108,
      "max": [
        0.9999309778213501,
        0.99688011407852173
      ],
      "min": [
        -0.0037602842785418034,
        -0.020192835479974747
      ],
      "type": "VEC2"
    },
    {
      "bufferView": 1,
      "byteOffset": 131456,
      "componentType": 5126,
      "count": 4108,
      "max": [
        0.9999309778213501,
        0.99688011407852173
      ],
      "min": [
        -0.0037602842785418034,
        -0.020192835479974747
      ],
      "type": "VEC2"
    },
    {
      "bufferView": 1,
      "byteOffset": 164320,
      "componentType": 5126,
      "count": 4108,
      "max": [
        0.9999309778213501,
        0.99688011407852173
      ],
      "min": [
        -0.0037602842785418034,
        -0.020192835479974747
      ],
      "type": "VEC2"
    },
    {
      "bufferView": 0,
      "componentType": 5125,
      "count": 5970,
      "max": [
        4107
      ],
      "min": [
        0
      ],
      "type": "SCALAR"
    }
  ],
  "asset": {
    "extras": {
      "author": "gg_caz (https://sketchfab.com/gg_caz)",
      "license": "CC-BY-4.0 (http://creativecommons.org/licenses/by/4.0/)",
      "source": "https://sketchfab.com/3d-models/juche-tower-b2d540041f9a42b888a9f4ae597bbec1",
      "title": "Juche Tower"
    },
    "generator": "Sketchfab-8.70.0",
    "version": "2.0"
  },
  "bufferViews": [
    {
      "buffer": 0,
      "byteLength": 23880,
      "byteOffset": 0,
      "name": "floatBufferViews",
      "target": 34963
    },
    {
      "buffer": 0,
      "byteLength": 197184,
      "byteOffset": 23880,
      "byteStride": 8,
      "name": "floatBufferViews",
      "target": 34962
    },
    {
      "buffer": 0,
      "byteLength": 98592,
      "byteOffset": 221064,
      "byteStride": 12,
      "name": "floatBufferViews",
      "target": 34962
    },
    {
      "buffer": 0,
      "byteLength": 65728,
      "byteOffset": 319656,
      "byteStride": 16,
      "name": "floatBufferViews",
      "target": 34962
    }
  ],
  "buffers": [
    {
      "byteLength": 385384,
      "uri": "scene.bin"
    }
  ],
  "images": [
    {
      "uri": "textures/Scene_-_Root_baseColor.png"
    },
    {
      "uri": "textures/Scene_-_Root_normal.png"
    }
  ],
  "materials": [
    {
      "alphaMode": "BLEND",
      "doubleSided": false,
      "name": "Scene_-_Root",
      "normalTexture": {
        "index": 1,
        "scale": 0.54284546023870761,
        "texCoord": 0
      },
      "pbrMetallicRoughness": {
        "baseColorFactor": [
          1,
          1,
          1,
          1
        ],
        "baseColorTexture": {
          "index": 0,
          "texCoord": 0
        },
        "metallicFactor": 0.634048057688683,
        "roughnessFactor": 0.59999999999999998
      }
    }
  ],
  "meshes": [
    {
      "name": "Plane.004__0",
      "primitives": [
        {
          "attributes": {
            "NORMAL": 1,
            "POSITION": 0,
            "TANGENT": 2,
            "TEXCOORD_0": 3,
            "TEXCOORD_1": 4,
            "TEXCOORD_2": 5,
            "TEXCOORD_3": 6,
            "TEXCOORD_4": 7,
            "TEXCOORD_5": 8
          },
          "indices": 9,
          "material": 0,
          "mode": 4
        }
      ]
    }
  ],
  "nodes": [
    {
      "children": [
        1
      ],
      "name": "RootNode (gltf orientation matrix)",
      "rotation": [
        -0.70710678118654746,
        -0,
        -0,
        0.70710678118654757
      ]
    },
    {
      "children": [
        2
      ],
      "matrix": [
        1,
        0,
        0,
        0,
        0,
        1,
        0,
        0,
        0,
        0,
        1,
        0,
        0,
        0.043269876390695572,
        0.0056419731117784977,
        1
      ],
      "name": "RootNode (model correction matrix)"
    },
    {
      "children": [
        3
      ],
      "matrix": [
        1,
        0,
        0,
        0,
        0,
        0,
        1,
        0,
        0,
        -1,
        0,
        0,
        0,
        0,
        0,
        1
      ],
      "name": "juche.fbx"
    },
    {
      "children": [
        4
      ],
      "name": "RootNode"
    },
    {
      "children": [
        5
      ],
      "matrix": [
        39.739780426025391,
        0,
        0,
        0,
        0,
        39.739780426024858,
        6.4744322464903292e-06,
        0,
        0,
        -6.4744322464903292e-06,
        39.739780426024858,
        0,
        0,
        -4961.05908203125,
        0,
        1
      ],
      "name": "Plane.004"
    },
    {
      "mesh": 0,
      "name": "Plane.004__0"
    }
  ],
  "samplers": [
    {
      "magFilter": 9729,
      "minFilter": 9987,
      "wrapS": 10497,
      "wrapT": 10497
    }
  ],
  "scene": 0,
  "scenes": [
    {
      "name": "OSG_Scene",
      "nodes": [
        0
      ]
    }
  ],
  "textures": [
    {
      "sampler": 0,
      "source": 0
    },
    {
      "sampler": 0,
      "source": 1
    }
  ]
}

