{
  "accessors": [
    {
      "bufferView": 2,
      "componentType": 5126,
      "count": 65532,
      "max": [
        35.008033752441406,
        8.2542858123779297,
        12.378297805786133
      ],
      "min": [
        -8.9465227127075195,
        -11.598194122314453,
        -34.840461730957031
      ],
      "type": "VEC3"
    },
    {
      "bufferView": 2,
      "byteOffset": 786384,
      "componentType": 5126,
      "count": 65532,
      "max": [
        1,
        1,
        1
      ],
      "min": [
        -1,
        -1,
        -1
      ],
      "type": "VEC3"
    },
    {
      "bufferView": 3,
      "componentType": 5126,
      "count": 65532,
      "max": [
        1,
        1,
        1,
        1
      ],
      "min": [
        -1,
        -1,
        -1,
        -1
      ],
      "type": "VEC4"
    },
    {
      "bufferView": 3,
      "byteOffset": 1048512,
      "componentType": 5126,
      "count": 65532,
      "max": [
        1,
        1,
        1,
        1
      ],
      "min": [
        1,
        1,
        1,
        1
      ],
      "type": "VEC4"
    },
    {
      "bufferView": 1,
      "componentType": 5126,
      "count": 65532,
      "max": [
        1.8529317378997803,
        1.8762636184692383
      ],
      "min": [
        -0.86518347263336182,
        -0.87626296281814575
      ],
      "type": "VEC2"
    },
    {
      "bufferView": 0,
      "componentType": 5125,
      "count": 137535,
      "max": [
        65531
      ],
      "min": [
        0
      ],
      "type": "SCALAR"
    },
    {
      "bufferView": 2,
      "byteOffset": 1572768,
      "componentType": 5126,
      "count": 65532,
      "max": [
        45.536483764648438,
        6.5790724754333496,
        12.378297805786133
      ],
      "min": [
        -13.045192718505859,
        -12.031936645507812,
        -34.840461730957031
      ],
      "type": "VEC3"
    },
    {
      "bufferView": 2,
      "byteOffset": 2359152,
      "componentType": 5126,
      "count": 65532,
      "max": [
        1,
        1,
        1
      ],
      "min": [
        -1,
        -1,
        -1
      ],
      "type": "VEC3"
    },
    {
      "bufferView": 3,
      "byteOffset": 2097024,
      "componentType": 5126,
      "count": 65532,
      "max": [
        1,
        1,
        1,
        1
      ],
      "min": [
        -1,
        -1,
        -1,
        -1
      ],
      "type": "VEC4"
    },
    {
      "bufferView": 3,
      "byteOffset": 3145536,
      "componentType": 5126,
      "count": 65532,
      "max": [
        1,
        1,
        1,
        1
      ],
      "min": [
        1,
        1,
        1,
        1
      ],
      "type": "VEC4"
    },
    {
      "bufferView": 1,
      "byteOffset": 524256,
      "componentType": 5126,
      "count": 65532,
      "max": [
        1.599850058555603,
        1.599850058555603
      ],
      "min": [
        -0.59985005855560303,
        -0.59985005855560303
      ],
      "type": "VEC2"
    },
    {
      "bufferView": 0,
      "byteOffset": 550140,
      "componentType": 5125,
      "count": 120747,
      "max": [
        65531
      ],
      "min": [
        0
      ],
      "type": "SCALAR"
    },
    {
      "bufferView": 2,
      "byteOffset": 3145536,
      "componentType": 5126,
      "count": 65532,
      "max": [
        45.904327392578125,
        12.631789207458496,
        12.273678779602051
      ],
      "min": [
        -13.3199462890625,
        -11.95728874206543,
        -34.642280578613281
      ],
      "type": "VEC3"
    },
    {
      "bufferView": 2,
      "byteOffset": 3931920,
      "componentType": 5126,
      "count": 65532,
      "max": [
        1,
        1,
        1
      ],
      "min": [
        -1,
        -1,
        -1
      ],
      "type": "VEC3"
    },
    {
      "bufferView": 3,
      "byteOffset": 4194048,
      "componentType": 5126,
      "count": 65532,
      "max": [
        1,
        1,
        1,
        1
      ],
      "min": [
        -1,
        -1,
        -1,
        -1
      ],
      "type": "VEC4"
    },
    {
      "bufferView": 3,
      "byteOffset": 5242560,
      "componentType": 5126,
      "count": 65532,
      "max": [
        1,
        1,
        1,
        1
      ],
      "min": [
        1,
        1,
        1,
        1
      ],
      "type": "VEC4"
    },
    {
      "bufferView": 1,
      "byteOffset": 1048512,
      "componentType": 5126,
      "count": 65532,
      "max": [
        2.3454468250274658,
        1.7939338684082031
      ],
      "min": [
        -1.3454468250274658,
        -0.79393768310546875
      ],
      "type": "VEC2"
    },
    {
      "bufferView": 0,
      "byteOffset": 1033128,
      "componentType": 5125,
      "count": 149862,
      "max": [
        65531
      ],
      "min": [
        0
      ],
      "type": "SCALAR"
    },
    {
      "bufferView": 2,
      "byteOffset": 4718304,
      "componentType": 5126,
      "count": 65532,
      "max": [
        46.1790771484375,
        12.59938907623291,
        12.34791374206543
      ],
      "min": [
        -13.3199462890625,
        -11.95728874206543,
        -34.810073852539062
      ],
      "type": "VEC3"
    },
    {
      "bufferView": 2,
      "byteOffset": 5504688,
      "componentType": 5126,
      "count": 65532,
      "max": [
        1,
        1,
        1
      ],
      "min": [
        -1,
        -1,
        -1
      ],
      "type": "VEC3"
    },
    {
      "bufferView": 3,
      "byteOffset": 6291072,
      "componentType": 5126,
      "count": 65532,
      "max": [
        1,
        1,
        1,
        1
      ],
      "min": [
        -1,
        -1,
        -1,
        -1
      ],
      "type": "VEC4"
    },
    {
      "bufferView": 3,
      "byteOffset": 7339584,
      "componentType": 5126,
      "count": 65532,
      "max": [
        1,
        1,
        1,
        1
      ],
      "min": [
        1,
        1,
        1,
        1
      ],
      "type": "VEC4"
    },
    {
      "bufferView": 1,
      "byteOffset": 1572768,
      "componentType": 5126,
      "count": 65532,
      "max": [
        5.8534202575683594,
        5.8907289505004883
      ],
      "min": [
        -4.6751093864440918,
        -2.7184979915618896
      ],
      "type": "VEC2"
    },
    {
      "bufferView": 0,
      "byteOffset": 1632576,
      "componentType": 5125,
      "count": 140328,
      "max": [
        65531
      ],
      "min": [
        0
      ],
      "type": "SCALAR"
    },
    {
      "bufferView": 2,
      "byteOffset": 6291072,
      "componentType": 5126,
      "count": 65532,
      "max": [
        46.5008544921875,
        15.404829025268555,
        14.645594596862793
      ],
      "min": [
        -13.642072677612305,
        -12.422944068908691,
        -37.107753753662109
      ],
      "type": "VEC3"
    },
    {
      "bufferView": 2,
      "byteOffset": 7077456,
      "componentType": 5126,
      "count": 65532,
      "max": [
        1,
        1,
        1
      ],
      "min": [
        -1,
        -1,
        -1
      ],
      "type": "VEC3"
    },
    {
      "bufferView": 3,
      "byteOffset": 8388096,
      "componentType": 5126,
      "count": 65532,
      "max": [
        1,
        1,
        1,
        1
      ],
      "min": [
        -1,
        -1,
        -1,
        -1
      ],
      "type": "VEC4"
    },
    {
      "bufferView": 3,
      "byteOffset": 9436608,
      "componentType": 5126,
      "count": 65532,
      "max": [
        1,
        1,
        1,
        1
      ],
      "min": [
        0,
        0,
        0,
        0
      ],
      "type": "VEC4"
    },
    {
      "bufferView": 1,
      "byteOffset": 2097024,
      "componentType": 5126,
      "count": 65532,
      "max": [
        2.92104172706604,
        2.7149832248687744
      ],
      "min": [
        -2.2255959510803223,
        -2.9753179550170898
      ],
      "type": "VEC2"
    },
    {
      "bufferView": 0,
      "byteOffset": 2193888,
      "componentType": 5125,
      "count": 130320,
      "max": [
        65531
      ],
      "min": [
        0
      ],
      "type": "SCALAR"
    },
    {
      "bufferView": 2,
      "byteOffset": 7863840,
      "componentType": 5126,
      "count": 24072,
      "max": [
        37.065673828125,
        13.125142097473145,
        0.2213606983423233
      ],
      "min": [
        -4.2065348625183105,
        -11.802441596984863,
        -22.683513641357422
      ],
      "type": "VEC3"
    },
    {
      "bufferView": 2,
      "byteOffset": 8152704,
      "componentType": 5126,
      "count": 24072,
      "max": [
        1,
        1,
        1
      ],
      "min": [
        -1,
        -1,
        -1
      ],
      "type": "VEC3"
    },
    {
      "bufferView": 3,
      "byteOffset": 10485120,
      "componentType": 5126,
      "count": 24072,
      "max": [
        1,
        1,
        1,
        1
      ],
      "min": [
        -1,
        -1,
        -1,
        -1
      ],
      "type": "VEC4"
    },
    {
      "bufferView": 3,
      "byteOffset": 10870272,
      "componentType": 5126,
      "count": 24072,
      "max": [
        1,
        1,
        1,
        1
      ],
      "min": [
        1,
        1,
        1,
        1
      ],
      "type": "VEC4"
    },
    {
      "bufferView": 1,
      "byteOffset": 2621280,
      "componentType": 5126,
      "count": 24072,
      "max": [
        16.418693542480469,
        5.2239179611206055
      ],
      "min": [
        -3.4730165004730225,
        -0.5558621883392334
      ],
      "type": "VEC2"
    },
    {
      "bufferView": 0,
      "byteOffset": 2715168,
      "componentType": 5125,
      "count": 43794,
      "max": [
        24071
      ],
      "min": [
        0
      ],
      "type": "SCALAR"
    },
    {
      "bufferView": 2,
      "byteOffset": 8441568,
      "componentType": 5126,
      "count": 3730,
      "max": [
        46.494892120361328,
        12.377666473388672,
        12.273544311523438
      ],
      "min": [
        -13.635866165161133,
        -12.489875793457031,
        -34.735706329345703
      ],
      "type": "VEC3"
    },
    {
      "bufferView": 2,
      "byteOffset": 8486328,
      "componentType": 5126,
      "count": 3730,
      "max": [
        1,
        1,
        1
      ],
      "min": [
        -1,
        -1,
        -1
      ],
      "type": "VEC3"
    },
    {
      "bufferView": 3,
      "byteOffset": 11255424,
      "componentType": 5126,
      "count": 3730,
      "max": [
        1,
        0.73677343130111694,
        1,
        1
      ],
      "min": [
        -1,
        -0.70888978242874146,
        -1,
        -1
      ],
      "type": "VEC4"
    },
    {
      "bufferView": 3,
      "byteOffset": 11315104,
      "componentType": 5126,
      "count": 3730,
      "max": [
        1,
        1,
        1,
        1
      ],
      "min": [
        0,
        0,
        0,
        0
      ],
      "type": "VEC4"
    },
    {
      "bufferView": 1,
      "byteOffset": 2813856,
      "componentType": 5126,
      "count": 3730,
      "max": [
        2.4234049320220947,
        2.5877280235290527
      ],
      "min": [
        -3.0193915367126465,
        -3.6418766975402832
      ],
      "type": "VEC2"
    },
    {
      "bufferView": 0,
      "byteOffset": 2890344,
      "componentType": 5125,
      "count": 8586,
      "max": [
        3729
      ],
      "min": [
        0
      ],
      "type": "SCALAR"
    },
    {
      "bufferView": 2,
      "byteOffset": 8531088,
      "componentType": 5126,
      "count": 99,
      "max": [
        34.841957092285156,
        7.8902640342712402,
        0.088288307189941406
      ],
      "min": [
        -1.9829330444335938,
        -11.766541481018066,
        -22.550449371337891
      ],
      "type": "VEC3"
    },
    {
      "bufferView": 2,
      "byteOffset": 8532276,
      "componentType": 5126,
      "count": 99,
      "max": [
        1,
        2.4524942432435637e-07,
        1
      ],
      "min": [
        -1,
        -1.0378468005001196e-06,
        -1
      ],
      "type": "VEC3"
    },
    {
      "bufferView": 3,
      "byteOffset": 11374784,
      "componentType": 5126,
      "count": 99,
      "max": [
        1,
        1.5684133001679298e-14,
        1.9215192992305674e-07,
        1
      ],
      "min": [
        0,
        -1.5684139777942877e-14,
        -1.9215192992305674e-07,
        -1
      ],
      "type": "VEC4"
    },
    {
      "bufferView": 3,
      "byteOffset": 11376368,
      "componentType": 5126,
      "count": 99,
      "max": [
        1,
        1,
        1,
        1
      ],
      "min": [
        1,
        1,
        1,
        1
      ],
      "type": "VEC4"
    },
    {
      "bufferView": 1,
      "byteOffset": 2843696,
      "componentType": 5126,
      "count": 99,
      "max": [
        18.412391662597656,
        11.319367408752441
      ],
      "min": [
        -18.412498474121094,
        -11.319367408752441
      ],
      "type": "VEC2"
    },
    {
      "bufferView": 0,
      "byteOffset": 2924688,
      "componentType": 5125,
      "count": 156,
      "max": [
        98
      ],
      "min": [
        0
      ],
      "type": "SCALAR"
    }
  ],
  "asset": {
    "extras": {
      "author": "baldiman (https://sketchfab.com/Baldiman)",
      "license": "CC-BY-4.0 (http://creativecommons.org/licenses/by/4.0/)",
      "source": "https://sketchfab.com/3d-models/hasselbakken-e082b9d50b26403ea6586cb1291ad3ab",
      "title": "Hasselbakken"
    },
    "generator": "Sketchfab-7.27.0",
    "version": "2.0"
  },
  "bufferViews": [
    {
      "buffer": 0,
      "byteLength": 2925312,
      "byteOffset": 0,
      "name": "floatBufferViews",
      "target": 34963
    },
    {
      "buffer": 0,
      "byteLength": 2844488,
      "byteOffset": 2925312,
      "byteStride": 8,
      "name": "floatBufferViews",
      "target": 34962
    },
    {
      "buffer": 0,
      "byteLength": 8533464,
      "byteOffset": 5769800,
      "byteStride": 12,
      "name": "floatBufferViews",
      "target": 34962
    },
    {
      "buffer": 0,
      "byteLength": 11377952,
      "byteOffset": 14303264,
      "byteStride": 16,
      "name": "floatBufferViews",
      "target": 34962
    }
  ],
  "buffers": [
    {
      "byteLength": 25681216,
      "uri": "scene.bin"
    }
  ],
  "extensionsRequired": [
    "KHR_materials_pbrSpecularGlossiness"
  ],
  "extensionsUsed": [
    "KHR_materials_pbrSpecularGlossiness"
  ],
  "images": [
    {
      "uri": "textures/Wood-dark_diffuse.jpeg"
    },
    {
      "uri": "textures/tiles_diffuse.jpeg"
    }
  ],
  "materials": [
    {
      "doubleSided": true,
      "emissiveFactor": [
        0,
        0,
        0
      ],
      "extensions": {
        "KHR_materials_pbrSpecularGlossiness": {
          "diffuseFactor": [
            1,
            1,
            1,
            1
          ],
          "diffuseTexture": {
            "index": 0,
            "texCoord": 0
          },
          "glossinessFactor": 0.10702864035024488,
          "specularFactor": [
            0.050000000000000003,
            0.050000000000000003,
            0.050000000000000003
          ]
        }
      },
      "name": "Wood-dark"
    },
    {
      "doubleSided": true,
      "emissiveFactor": [
        0,
        0,
        0
      ],
      "extensions": {
        "KHR_materials_pbrSpecularGlossiness": {
          "diffuseFactor": [
            1,
            1,
            1,
            1
          ],
          "diffuseTexture": {
            "index": 1,
            "texCoord": 0
          },
          "glossinessFactor": 0.10702864035024488,
          "specularFactor": [
            1,
            1,
            1
          ],
          "specularGlossinessTexture": {
            "index": 1,
            "texCoord": 0
          }
        }
      },
      "name": "tiles"
    },
    {
      "alphaMode": "BLEND",
      "doubleSided": true,
      "emissiveFactor": [
        0,
        0,
        0
      ],
      "extensions": {
        "KHR_materials_pbrSpecularGlossiness": {
          "diffuseFactor": [
            0.011700604248046873,
            0.011700604248046873,
            0.011700604248046873,
            0.48050504742246686
          ],
          "glossinessFactor": 0.94111110802852749,
          "specularFactor": [
            0.22595959287701231,
            0.22595959287701231,
            0.22595959287701231
          ]
        }
      },
      "name": "Glass"
    }
  ],
  "meshes": [
    {
      "name": "Building_Wood-dark_0",
      "primitives": [
        {
          "attributes": {
            "COLOR_0": 3,
            "NORMAL": 1,
            "POSITION": 0,
            "TANGENT": 2,
            "TEXCOORD_0": 4
          },
          "indices": 5,
          "material": 0,
          "mode": 4
        }
      ]
    },
    {
      "name": "Building_Wood-dark_0",
      "primitives": [
        {
          "attributes": {
            "COLOR_0": 9,
            "NORMAL": 7,
            "POSITION": 6,
            "TANGENT": 8,
            "TEXCOORD_0": 10
          },
          "indices": 11,
          "material": 0,
          "mode": 4
        }
      ]
    },
    {
      "name": "Building_Wood-dark_0",
      "primitives": [
        {
          "attributes": {
            "COLOR_0": 15,
            "NORMAL": 13,
            "POSITION": 12,
            "TANGENT": 14,
            "TEXCOORD_0": 16
          },
          "indices": 17,
          "material": 0,
          "mode": 4
        }
      ]
    },
    {
      "name": "Building_Wood-dark_0",
      "primitives": [
        {
          "attributes": {
            "COLOR_0": 21,
            "NORMAL": 19,
            "POSITION": 18,
            "TANGENT": 20,
            "TEXCOORD_0": 22
          },
          "indices": 23,
          "material": 0,
          "mode": 4
        }
      ]
    },
    {
      "name": "Building_Wood-dark_0",
      "primitives": [
        {
          "attributes": {
            "COLOR_0": 27,
            "NORMAL": 25,
            "POSITION": 24,
            "TANGENT": 26,
            "TEXCOORD_0": 28
          },
          "indices": 29,
          "material": 0,
          "mode": 4
        }
      ]
    },
    {
      "name": "Building_Wood-dark_0",
      "primitives": [
        {
          "attributes": {
            "COLOR_0": 33,
            "NORMAL": 31,
            "POSITION": 30,
            "TANGENT": 32,
            "TEXCOORD_0": 34
          },
          "indices": 35,
          "material": 0,
          "mode": 4
        }
      ]
    },
    {
      "name": "Building_tiles_0",
      "primitives": [
        {
          "attributes": {
            "COLOR_0": 39,
            "NORMAL": 37,
            "POSITION": 36,
            "TANGENT": 38,
            "TEXCOORD_0": 40
          },
          "indices": 41,
          "material": 1,
          "mode": 4
        }
      ]
    },
    {
      "name": "Building_Glass_0",
      "primitives": [
        {
          "attributes": {
            "COLOR_0": 45,
            "NORMAL": 43,
            "POSITION": 42,
            "TANGENT": 44,
            "TEXCOORD_0": 46
          },
          "indices": 47,
          "material": 2,
          "mode": 4
        }
      ]
    }
  ],
  "nodes": [
    {
      "children": [
        1
      ],
      "name": "RootNode (gltf orientation matrix)",
      "rotation": [
        -0.70710678118654746,
        -0,
        -0,
        0.70710678118654757
      ]
    },
    {
      "children": [
        2
      ],
      "name": "RootNode (model correction matrix)"
    },
    {
      "children": [
        3
      ],
      "matrix": [
        1,
        0,
        0,
        0,
        0,
        0,
        1,
        0,
        0,
        -1,
        0,
        0,
        0,
        0,
        0,
        1
      ],
      "name": "2cf98b38376d4bd4aa6a0f0c65cc4b0b.fbx"
    },
    {
      "children": [
        4
      ],
      "name": "RootNode"
    },
    {
      "children": [
        5
      ],
      "matrix": [
        37.69073486328125,
        0,
        0,
        0,
        0,
        42.293563842772876,
        6.8904964181160307e-06,
        0,
        0,
        -6.1406003650358224e-06,
        37.690734863280746,
        0,
        0.00013490021228790283,
        355.44805908203125,
        854.15869140625,
        1
      ],
      "name": "Building"
    },
    {
      "children": [
        6,
        7,
        8,
        9,
        10,
        11,
        12,
        13
      ],
      "matrix": [
        1,
        0,
        -0,
        0,
        0,
        1,
        0,
        0,
        0,
        0,
        1,
        0,
        -16.429515838623047,
        4.0708460807800293,
        -11.431219100952148,
        1
      ],
      "name": ""
    },
    {
      "mesh": 0,
      "name": "Building_Wood-dark_0"
    },
    {
      "mesh": 1,
      "name": "Building_Wood-dark_0"
    },
    {
      "mesh": 2,
      "name": "Building_Wood-dark_0"
    },
    {
      "mesh": 3,
      "name": "Building_Wood-dark_0"
    },
    {
      "mesh": 4,
      "name": "Building_Wood-dark_0"
    },
    {
      "mesh": 5,
      "name": "Building_Wood-dark_0"
    },
    {
      "mesh": 6,
      "name": "Building_tiles_0"
    },
    {
      "mesh": 7,
      "name": "Building_Glass_0"
    }
  ],
  "samplers": [
    {
      "magFilter": 9729,
      "minFilter": 9987,
      "wrapS": 10497,
      "wrapT": 10497
    }
  ],
  "scene": 0,
  "scenes": [
    {
      "name": "OSG_Scene",
      "nodes": [
        0
      ]
    }
  ],
  "textures": [
    {
      "sampler": 0,
      "source": 0
    },
    {
      "sampler": 0,
      "source": 1
    }
  ]
}

