{
  "accessors": [
    {
      "name": "10067_Eiffel_Tower_v1_1_0_positions",
      "componentType": 5126,
      "count": 26017,
      "min": [
        -6007.32177734375,
        -6007.32275390625,
        -0.14839999377727509
      ],
      "max": [
        6007.32177734375,
        6007.32275390625,
        32498.3359375
      ],
      "type": "VEC3",
      "bufferView": 0,
      "byteOffset": 0
    },
    {
      "name": "10067_Eiffel_Tower_v1_1_0_normals",
      "componentType": 5126,
      "count": 26017,
      "min": [
        -1,
        -1,
        -1
      ],
      "max": [
        1,
        1,
        1
      ],
      "type": "VEC3",
      "bufferView": 1,
      "byteOffset": 0
    },
    {
      "name": "10067_Eiffel_Tower_v1_1_0_texcoords",
      "componentType": 5126,
      "count": 26017,
      "min": [
        0.0010999999940395355,
        0.0019000000320374966
      ],
      "max": [
        0.9976000189781189,
        0.9973000288009644
      ],
      "type": "VEC2",
      "bufferView": 2,
      "byteOffset": 0
    },
    {
      "name": "10067_Eiffel_Tower_v1_1_0_indices",
      "componentType": 5123,
      "count": 101778,
      "min": [
        0
      ],
      "max": [
        26016
      ],
      "type": "SCALAR",
      "bufferView": 3,
      "byteOffset": 0
    }
  ],
  "asset": {
    "generator": "obj2gltf",
    "version": "2.0"
  },
  "buffers": [
    {
      "name": "test",
      "byteLength": 2018160,
      "uri": "data:application/octet-stream;base64,"
    }
  ],
  "bufferViews": [
    {
      "name": "bufferView_0",
      "buffer": 0,
      "byteLength": 312204,
      "byteOffset": 0,
      "byteStride": 12,
      "target": 34962
    },
    {
      "name": "bufferView_1",
      "buffer": 0,
      "byteLength": 312204,
      "byteOffset": 312204,
      "byteStride": 12,
      "target": 34962
    },
    {
      "name": "bufferView_2",
      "buffer": 0,
      "byteLength": 208136,
      "byteOffset": 624408,
      "byteStride": 8,
      "target": 34962
    },
    {
      "name": "bufferView_3",
      "buffer": 0,
      "byteLength": 203556,
      "byteOffset": 832544,
      "target": 34963
    },
    {
      "buffer": 0,
      "byteOffset": 1036100,
      "byteLength": 982059
    }
  ],
  "images": [
    {
      "name": "10067_Eiffel_Tower_v1_diffuse",
      "mimeType": "image/jpeg",
      "bufferView": 4
    }
  ],
  "materials": [
    {
      "name": "10067_Eiffel_Tower_v1",
      "pbrMetallicRoughness": {
        "baseColorTexture": {
          "index": 0
        },
        "baseColorFactor": [
          1,
          1,
          1,
          1
        ],
        "metallicFactor": 0,
        "roughnessFactor": 0.99
      },
      "emissiveFactor": [
        0,
        0,
        0
      ],
      "alphaMode": "OPAQUE",
      "doubleSided": false
    }
  ],
  "meshes": [
    {
      "name": "10067_Eiffel_Tower_v1_1",
      "primitives": [
        {
          "attributes": {
            "POSITION": 0,
            "NORMAL": 1,
            "TEXCOORD_0": 2
          },
          "indices": 3,
          "material": 0,
          "mode": 4
        }
      ]
    }
  ],
  "nodes": [
    {
      "name": "10067_Eiffel_Tower_v1",
      "mesh": 0
    }
  ],
  "samplers": [
    {
      "magFilter": 9729,
      "minFilter": 9986,
      "wrapS": 10497,
      "wrapT": 10497
    }
  ],
  "scene": 0,
  "scenes": [
    {
      "nodes": [
        0
      ]
    }
  ],
  "textures": [
    {
      "name": "10067_Eiffel_Tower_v1_diffuse",
      "sampler": 0,
      "source": 0
    }
  ]
}
