{
  "accessors": [
    {
      "bufferView": 2,
      "componentType": 5126,
      "count": 65532,
      "max": [
        7.5438699722290039,
        0.63137799501419067,
        8.2854604721069336
      ],
      "min": [
        3.2949399948120117,
        -2.6224699020385742,
        0.38814300298690796
      ],
      "type": "VEC3"
    },
    {
      "bufferView": 2,
      "byteOffset": 786384,
      "componentType": 5126,
      "count": 65532,
      "max": [
        0.99999934434890747,
        0.99999988079071045,
        0.99971902370452881
      ],
      "min": [
        -0.99991387128829956,
        -0.99993902444839478,
        -0.99996364116668701
      ],
      "type": "VEC3"
    },
    {
      "bufferView": 3,
      "componentType": 5126,
      "count": 65532,
      "max": [
        0.99999725818634033,
        0.99999988079071045,
        0.99996030330657959,
        1
      ],
      "min": [
        -0.99999666213989258,
        -0.99999266862869263,
        -0.99999994039535522,
        -1
      ],
      "type": "VEC4"
    },
    {
      "bufferView": 1,
      "componentType": 5126,
      "count": 65532,
      "max": [
        0.98276001214981079,
        0.99730902910232544
      ],
      "min": [
        0.0045360000804066658,
        0.018231999129056931
      ],
      "type": "VEC2"
    },
    {
      "bufferView": 0,
      "componentType": 5125,
      "count": 339057,
      "max": [
        65531
      ],
      "min": [
        0
      ],
      "type": "SCALAR"
    },
    {
      "bufferView": 2,
      "byteOffset": 1572768,
      "componentType": 5126,
      "count": 65532,
      "max": [
        6.8357200622558594,
        0.64122599363327026,
        9.9556303024291992
      ],
      "min": [
        3.141089916229248,
        -2.6336600780487061,
        0.38814300298690796
      ],
      "type": "VEC3"
    },
    {
      "bufferView": 2,
      "byteOffset": 2359152,
      "componentType": 5126,
      "count": 65532,
      "max": [
        0.99999809265136719,
        0.99999690055847168,
        0.99998277425765991
      ],
      "min": [
        -0.99999397993087769,
        -0.9999997615814209,
        -0.99986398220062256
      ],
      "type": "VEC3"
    },
    {
      "bufferView": 3,
      "byteOffset": 1048512,
      "componentType": 5126,
      "count": 65532,
      "max": [
        0.99999725818634033,
        0.99999231100082397,
        0.99999803304672241,
        1
      ],
      "min": [
        -0.9999929666519165,
        -0.99998432397842407,
        -0.99999994039535522,
        -1
      ],
      "type": "VEC4"
    },
    {
      "bufferView": 1,
      "byteOffset": 524256,
      "componentType": 5126,
      "count": 65532,
      "max": [
        0.96499001979827881,
        0.99595797061920166
      ],
      "min": [
        0.033195298165082932,
        0.003957000095397234
      ],
      "type": "VEC2"
    },
    {
      "bufferView": 0,
      "byteOffset": 1356228,
      "componentType": 5125,
      "count": 324948,
      "max": [
        65531
      ],
      "min": [
        0
      ],
      "type": "SCALAR"
    },
    {
      "bufferView": 2,
      "byteOffset": 3145536,
      "componentType": 5126,
      "count": 65532,
      "max": [
        7.535250186920166,
        0.63611000776290894,
        10.297900199890137
      ],
      "min": [
        3.1543200016021729,
        -2.6336600780487061,
        0.38814300298690796
      ],
      "type": "VEC3"
    },
    {
      "bufferView": 2,
      "byteOffset": 3931920,
      "componentType": 5126,
      "count": 65532,
      "max": [
        0.99999701976776123,
        0.999991774559021,
        0.99994909763336182
      ],
      "min": [
        -0.99999523162841797,
        -1,
        -1
      ],
      "type": "VEC3"
    },
    {
      "bufferView": 3,
      "byteOffset": 2097024,
      "componentType": 5126,
      "count": 65532,
      "max": [
        0.99999964237213135,
        0.99999833106994629,
        1,
        1
      ],
      "min": [
        -0.99999821186065674,
        -0.99999678134918213,
        -0.99975466728210449,
        -1
      ],
      "type": "VEC4"
    },
    {
      "bufferView": 1,
      "byteOffset": 1048512,
      "componentType": 5126,
      "count": 65532,
      "max": [
        0.98483097553253174,
        0.99732297658920288
      ],
      "min": [
        0.021879000589251518,
        0.0039760000072419643
      ],
      "type": "VEC2"
    },
    {
      "bufferView": 0,
      "byteOffset": 2656020,
      "componentType": 5125,
      "count": 306102,
      "max": [
        65531
      ],
      "min": [
        0
      ],
      "type": "SCALAR"
    },
    {
      "bufferView": 2,
      "byteOffset": 4718304,
      "componentType": 5126,
      "count": 36590,
      "max": [
        5.2751998901367188,
        -1.2061599493026733,
        12.824099540710449
      ],
      "min": [
        3.3704400062561035,
        -3.0836598873138428,
        3.7126801013946533
      ],
      "type": "VEC3"
    },
    {
      "bufferView": 2,
      "byteOffset": 5157384,
      "componentType": 5126,
      "count": 36590,
      "max": [
        0.9999845027923584,
        0.99986577033996582,
        0.99997550249099731
      ],
      "min": [
        -0.99992138147354126,
        -1,
        -0.99752461910247803
      ],
      "type": "VEC3"
    },
    {
      "bufferView": 3,
      "byteOffset": 3145536,
      "componentType": 5126,
      "count": 36590,
      "max": [
        0.99999409914016724,
        0.99991685152053833,
        0.9999813437461853,
        1
      ],
      "min": [
        -0.99992364645004272,
        -0.99969267845153809,
        -0.99987143278121948,
        -1
      ],
      "type": "VEC4"
    },
    {
      "bufferView": 1,
      "byteOffset": 1572768,
      "componentType": 5126,
      "count": 36590,
      "max": [
        0.99657297134399414,
        0.99839597940444946
      ],
      "min": [
        0.0048210001550614834,
        0.0031139999628067017
      ],
      "type": "VEC2"
    },
    {
      "bufferView": 0,
      "byteOffset": 3880428,
      "componentType": 5125,
      "count": 159999,
      "max": [
        36589
      ],
      "min": [
        0
      ],
      "type": "SCALAR"
    },
    {
      "bufferView": 2,
      "byteOffset": 5596464,
      "componentType": 5126,
      "count": 7874,
      "max": [
        6.401979923248291,
        0.63464999198913574,
        0.38814300298690796
      ],
      "min": [
        3.1543600559234619,
        -2.6261301040649414,
        0.38813701272010803
      ],
      "type": "VEC3"
    },
    {
      "bufferView": 2,
      "byteOffset": 5690952,
      "componentType": 5126,
      "count": 7874,
      "max": [
        0.99999701976776123,
        0.99991112947463989,
        0.13112100958824158
      ],
      "min": [
        -0.9999498724937439,
        -0.99935400485992432,
        -1
      ],
      "type": "VEC3"
    },
    {
      "bufferView": 0,
      "byteOffset": 4520424,
      "componentType": 5125,
      "count": 44334,
      "max": [
        7873
      ],
      "min": [
        0
      ],
      "type": "SCALAR"
    }
  ],
  "asset": {
    "extras": {
      "author": "jerryfisher (https://sketchfab.com/jerryfisher)",
      "license": "CC-BY-4.0 (http://creativecommons.org/licenses/by/4.0/)",
      "source": "https://sketchfab.com/3d-models/statue-of-liberty-bronze-model-5b9aa58d51624f01b9009b52379bf18a",
      "title": "Statue Of Liberty Bronze Model"
    },
    "generator": "Sketchfab-6.22.0",
    "version": "2.0"
  },
  "bufferViews": [
    {
      "buffer": 0,
      "byteLength": 4697760,
      "byteOffset": 0,
      "name": "floatBufferViews",
      "target": 34963
    },
    {
      "buffer": 0,
      "byteLength": 1865488,
      "byteOffset": 4697760,
      "byteStride": 8,
      "name": "floatBufferViews",
      "target": 34962
    },
    {
      "buffer": 0,
      "byteLength": 5785440,
      "byteOffset": 6563248,
      "byteStride": 12,
      "name": "floatBufferViews",
      "target": 34962
    },
    {
      "buffer": 0,
      "byteLength": 3730976,
      "byteOffset": 12348688,
      "byteStride": 16,
      "name": "floatBufferViews",
      "target": 34962
    }
  ],
  "buffers": [
    {
      "byteLength": 16079664,
      "uri": "scene.bin"
    }
  ],
  "materials": [
    {
      "doubleSided": true,
      "emissiveFactor": [
        0,
        0,
        0
      ],
      "name": "Scene_-_Root",
      "pbrMetallicRoughness": {
        "baseColorFactor": [
          0.5,
          0.5,
          0.5,
          1
        ],
        "metallicFactor": 0,
        "roughnessFactor": 0.59999999999999998
      }
    }
  ],
  "meshes": [
    {
      "primitives": [
        {
          "attributes": {
            "NORMAL": 1,
            "POSITION": 0,
            "TANGENT": 2,
            "TEXCOORD_0": 3
          },
          "indices": 4,
          "material": 0,
          "mode": 4
        }
      ]
    },
    {
      "primitives": [
        {
          "attributes": {
            "NORMAL": 6,
            "POSITION": 5,
            "TANGENT": 7,
            "TEXCOORD_0": 8
          },
          "indices": 9,
          "material": 0,
          "mode": 4
        }
      ]
    },
    {
      "primitives": [
        {
          "attributes": {
            "NORMAL": 11,
            "POSITION": 10,
            "TANGENT": 12,
            "TEXCOORD_0": 13
          },
          "indices": 14,
          "material": 0,
          "mode": 4
        }
      ]
    },
    {
      "primitives": [
        {
          "attributes": {
            "NORMAL": 16,
            "POSITION": 15,
            "TANGENT": 17,
            "TEXCOORD_0": 18
          },
          "indices": 19,
          "material": 0,
          "mode": 4
        }
      ]
    },
    {
      "primitives": [
        {
          "attributes": {
            "NORMAL": 21,
            "POSITION": 20
          },
          "indices": 22,
          "material": 0,
          "mode": 4
        }
      ]
    }
  ],
  "nodes": [
    {
      "children": [
        1
      ],
      "name": "RootNode (gltf orientation matrix)",
      "rotation": [
        -0.70710678118654746,
        -0,
        -0,
        0.70710678118654757
      ]
    },
    {
      "children": [
        2
      ],
      "name": "RootNode (model correction matrix)"
    },
    {
      "children": [
        3,
        4,
        5,
        6,
        7
      ],
      "name": "abd89939b6a544d5b5390eb87fbac633.obj.cleaner"
    },
    {
      "mesh": 0,
      "name": ""
    },
    {
      "mesh": 1,
      "name": ""
    },
    {
      "mesh": 2,
      "name": ""
    },
    {
      "mesh": 3,
      "name": ""
    },
    {
      "mesh": 4,
      "name": ""
    }
  ],
  "scene": 0,
  "scenes": [
    {
      "name": "OSG_Scene",
      "nodes": [
        0
      ]
    }
  ]
}

